#!OML:ASF E:/inclinewalkrobotboard/Project1/Captureday1/Session1/subject1.ASF
:FULLY-SPECIFIED
:DEGREES
163
root 0 0 0 -1.749078234663013 -5.370430916616675 -7.3514329442465085
lowerback 10.105117291518185 2.462008783462684 5.682678506354331
upperback 0.06078415332067827 4.019728864562312 1.4653929240681032
thorax -5.522995828345274 1.8516610388124968 -2.2284512945604797
lowerneck -14.824342904425574 -3.340895671911885 -0.9730414540448635
upperneck 17.459283557331887 -4.58604704617488 1.3290845114462129
head 8.028579230301366 -2.1388933246645627 0.0924039328171522
rclavicle -1.4657724231108843E-16 -4.8220221824024875E-17
rhumerus -19.06411744319668 -6.668407637387939 -66.77399563462285
rradius 62.50037678506281
rwrist -8.816293283723105
rhand -13.104319726621906 -10.702730814586493
rfingers 7.125019999999854
rthumb 13.021241045458966 -39.90877060589554
lclavicle -8.521024134437398E-16 -3.8683137968832704E-16
lhumerus -39.983467204150145 0.2914914256263998 83.31802191286707
lradius 38.70605095903639
lwrist 2.5461290172859745
lhand -19.076359355130442 -0.23346170989214343
lfingers 7.125019999999871
lthumb 7.126515841789129 29.25465844035682
rfemur -4.389194131801426 3.65239214568882 17.743688540149915
rtibia 22.87441789397152
rfoot -5.919492242730991 -3.248075813138451
rtoes 2.0410153072367345
lfemur -16.206540470120995 -1.7052584817381935 -12.703416098996048
ltibia 37.48931564167496
lfoot -8.78615789445039 0.9679668953100276
ltoes -20.099307113554445
164
root 0 0 0 -1.7279759559066443 -5.356725136124997 -7.343704384312428
lowerback 10.098316913260525 2.46718830781819 5.653851155905115
upperback 0.05136891906566671 4.023904476247935 1.4496156757622978
thorax -5.529077802339229 1.8527510066863209 -2.2293474766358345
lowerneck -14.741467035380516 -3.336324099823866 -0.9500351831423237
upperneck 17.362415322995513 -4.587467889878493 1.3506118493707553
head 7.990993992500311 -2.137407474544143 0.0984869997458846
rclavicle -1.49696215794919E-16 -4.6717871654063E-17
rhumerus -19.11252707658604 -6.707445006776185 -66.82079311375462
rradius 62.36871409442168
rwrist -8.764811728420842
rhand -13.120080609012085 -10.590193092027398
rfingers 7.125019999999854
rthumb 13.006465556559778 -39.79827325662605
lclavicle -8.663917538457045E-16 -3.980309289985887E-16
lhumerus -40.21582989223979 0.31127634640784646 83.34063421667462
lradius 39.00685626421318
lwrist 2.4419824567409005
lhand -18.83500567683186 -0.9692337958198891
lfingers 7.125019999999867
lthumb 7.355091262964448 28.509924469920993
rfemur -4.457422668448893 3.120679347564996 16.411049561193735
rtibia 23.727712809412722
rfoot -4.271244530058716 -2.799881844905244
rtoes 2.649710553798717
lfemur -15.290802474101927 -1.9207391221431496 -12.9087604924304
ltibia 36.09279406472317
lfoot -9.70672299723831 1.551890731235896
ltoes -21.231983049019654
165
root 0 0 0 -1.7088263153558705 -5.323059371641012 -7.301466774311191
lowerback 10.09339203515528 2.4605108574197487 5.589613236334072
upperback 0.04216816978031496 4.008184014360083 1.4324268622657734
thorax -5.53596057893952 1.8448226744269016 -2.2095912081021956
lowerneck -14.658939496244741 -3.3298358530071797 -0.9304910429561534
upperneck 17.26168473648325 -4.585471699425542 1.3720989961066952
head 7.953937813622391 -2.1344554322941316 0.10569081869873503
rclavicle -1.6007120079546612E-16 -5.138470377783264E-17
rhumerus -19.267177474393712 -6.86560773596708 -66.98574209403392
rradius 61.870668538761834
rwrist -8.58157393705353
rhand -13.184586491993798 -10.134457935879478
rfingers 7.125019999999857
rthumb 12.944092714628454 -39.35104799402775
lclavicle -8.771332861618374E-16 -4.061124174023151E-16
lhumerus -40.42378149166354 0.32433433114101967 83.36028277029733
lradius 39.28706226796921
lwrist 2.3500025402301734
lhand -18.61657414643021 -1.6376576872074313
lfingers 7.1250199999998625
lthumb 7.562182320089805 27.833006611401665
rfemur -5.321164368164042 2.514662315310351 15.239990855454298
rtibia 25.878950587229703
rfoot -2.316932440719618 -2.4974332707346867
rtoes 3.5199942440847245
lfemur -14.082486157193307 -2.14412381163838 -13.312824078525017
ltibia 34.56775679883447
lfoot -10.64102872612097 2.049034874510313
ltoes -22.093333922988382
166
root 0 0 0 -1.6942681489606473 -5.296123695517068 -7.268417989933672
lowerback 10.08979914839813 2.454641377333152 5.540155259998725
upperback 0.035116683307880314 3.994951910460682 1.419797814973622
thorax -5.541786290087033 1.8383573259692918 -2.1937633292327012
lowerneck -14.598408051446501 -3.32501710541277 -0.9161304222226376
upperneck 17.184721473507498 -4.583898681676719 1.3885421334095795
head 7.926214054790712 -2.1322250944961296 0.11121493149008849
rclavicle -1.6460341924757106E-16 -5.727848814698E-17
rhumerus -19.355467470600146 -6.958343837028495 -67.08028619218689
rradius 61.57988356472029
rwrist -8.47658332693361
rhand -13.222115602665026 -9.867631952274278
rfingers 7.125019999999858
rthumb 12.90728557349384 -39.08942370955154
lclavicle -8.785820134275084E-16 -4.098029173061463E-16
lhumerus -40.47875503715814 0.32402495794258307 83.36621471574456
lradius 39.368878183192365
lwrist 2.3267287711910427
lhand -18.556496038894217 -1.8228905404966547
lfingers 7.125019999999861
lthumb 7.619685245418559 27.6454124163998
rfemur -5.887476921777621 2.3715575094614967 15.026718968411917
rtibia 26.645089141413344
rfoot -1.88309568432129 -2.5356532822611184
rtoes 3.7110992631662763
lfemur -13.282785927188902 -2.2803089163047794 -13.603449085652898
ltibia 33.62229090681919
lfoot -11.208413143015406 2.326585122692192
ltoes -22.55003292882925
167
root 0 0 0 -1.684622340216185 -5.275670856127021 -7.242273735585188
lowerback 10.087439325665423 2.4494290680662525 5.503185052528898
upperback 0.0304796339807466 3.983857596434244 1.4111991506194728
thorax -5.545929115904213 1.833105386676836 -2.1809755234705204
lowerneck -14.55867459528012 -3.321772737503572 -0.907113579045111
upperneck 17.131796907422554 -4.582749978549241 1.3999210786863987
head 7.907932524631599 -2.1306813260706283 0.11509050336674675
rclavicle -1.6828945005258613E-16 -6.227519767089158E-17
rhumerus -19.431992054586548 -7.03782225378224 -67.16471104924143
rradius 61.327003164216535
rwrist -8.384626185656426
rhand -13.255184565075783 -9.63643555740239
rfingers 7.12501999999986
rthumb 12.875522291897333 -38.86208814945733
lclavicle -8.724088246269295E-16 -4.114478921410589E-16
lhumerus -40.476229788762176 0.32070705869358695 83.36648535180314
lradius 39.37327215631997
lwrist 2.327845409093956
lhand -18.55627882547365 -1.8256726283507891
lfingers 7.125019999999861
lthumb 7.620433142624451 27.644390099133
rfemur -6.1673509720575055 2.4334592804677975 15.147824538046974
rtibia 26.50162681606855
rfoot -2.151565364431539 -2.6873145312670683
rtoes 3.5423056206618098
lfemur -12.430422987006105 -2.428115608629576 -13.903985153445493
ltibia 32.601016900277315
lfoot -11.829370907176152 2.635238942250198
ltoes -23.078221030657744
168
root 0 0 0 -1.6760153106909481 -5.254244723730001 -7.21487455080141
lowerback 10.085294205132168 2.4424066262844395 5.4662132732956
upperback 0.026426240131610157 3.969979479742493 1.4042554382802854
thorax -5.54972828080002 1.8267291858596746 -2.166296490851513
lowerneck -14.525916418412079 -3.3184733577665675 -0.899894140664792
upperneck 17.085867714883396 -4.5807336743845495 1.4095113248488902
head 7.8928774035645155 -2.1289017810496875 0.11846833570701293
rclavicle -1.7027377213409721E-16 -6.530772846762227E-17
rhumerus -19.48020550534861 -7.089275358999739 -67.21910768882067
rradius 61.16248633439345
rwrist -8.326244712531976
rhand -13.276823561684532 -9.484971779590621
rfingers 7.125019999999861
rthumb 12.854611988227623 -38.713249300302174
lclavicle -8.655787743027315E-16 -4.1122445340658167E-16
lhumerus -40.44880451377274 0.31425723562078123 83.36434317564687
lradius 39.3475279727983
lwrist 2.340377562482521
lhand -18.581347414269267 -1.750997836906464
lfingers 7.125019999999861
lthumb 7.5969454797623825 27.720464394569056
rfemur -6.164340001180721 2.5997199650303893 15.364058663096833
rtibia 25.623916167740553
rfoot -2.811025428831829 -2.8649201100293005
rtoes 3.1307871300781795
lfemur -11.469331358301336 -2.5980106853104337 -14.239941010897812
ltibia 31.43261420474767
lfoot -12.538548617983093 2.9906001896222083
ltoes -23.689376171503394
169
root 0 0 0 -1.6701275857316888 -5.229247037947996 -7.1803320925664975
lowerback 10.08385563908262 2.4311657098902515 5.424307638740543
upperback 0.023757491626540006 3.94955606851615 1.3994500925497064
thorax -5.5524872790277735 1.8175434802336201 -2.1458093613666254
lowerneck -14.504359099604805 -3.3148631114885494 -0.896360795689741
upperneck 17.05271780590703 -4.576985825065304 1.4159288458714174
head 7.882958390209363 -2.1266287676699283 0.1211643063641078
rclavicle -1.7152349700390627E-16 -6.77337470606835E-17
rhumerus -19.51537096998332 -7.126795330537535 -67.258250615013
rradius 61.04333814452987
rwrist -8.284063690135685
rhand -13.292463177556204 -9.375100009453295
rfingers 7.125019999999862
rthumb 12.839447145123106 -38.60529302956154
lclavicle -8.600345662788087E-16 -4.1099830020213864E-16
lhumerus -40.412335976386544 0.3089587240216682 83.36113505491755
lradius 39.30598751089775
lwrist 2.3563827485492794
lhand -18.61675181012885 -1.64358060719192
lfingers 7.125019999999862
lthumb 7.563367028752228 27.82959013299577
rfemur -6.013800415901787 2.7663697362808697 15.526468884901037
rtibia 24.5397876379866
rfoot -3.484700833291744 -3.003640353193925
rtoes 2.687199610999393
lfemur -10.405480333075394 -2.781753657499998 -14.631295515207983
ltibia 30.15734821846569
lfoot -13.29257807504037 3.3525612045402102
ltoes -24.277111120554597
